<?xml version="1.0" encoding="UTF-8"?>
<svg id="Camada_1" xmlns="http://www.w3.org/2000/svg" version="1.1" viewBox="0 0 200 74">
  <!-- Generator: Adobe Illustrator 30.1.0, SVG Export Plug-In . SVG Version: 2.1.1 Build 136)  -->
  <defs>
    <style>
      .st0 {
        fill: #fb6e13;
      }
    </style>
  </defs>
  <path class="st0" d="M57.6,32.3l-9.1-7.3c-3.2,4-7.1,5.6-11.3,5.1,8.2-3.9,13.6-12.6,11.4-22l-11.4,2.6c1.1,5,0,9.1-3.1,12C36.2,13.8,32.7,4.2,24,0l-5.1,10.5c4.6,2.2,7.1,5.7,7.5,9.9-5.6-7.1-15.3-10.4-24-6.2l5.1,10.5c4.6-2.2,8.8-2,12.4.4-9.1,0-17.7,5.5-19.8,14.9l11.4,2.6c1.1-5,4-8.1,8-9.5-5.7,7.1-6.8,17.2-.7,24.8l9.1-7.3c-3.2-4-3.9-8.2-2.4-12.2,2,8.8,9.3,15.8,18.9,15.8v-11.7c-4.9,0-8.6-1.9-10.8-5.4,8.1,3.9,18.1,2.6,24.1-4.9h0Z"/>
  <path class="st0" d="M65.4,4.3v7.4h8.9v42.4h10.8V11.7h8.8v-7.4h-28.5Z"/>
  <path class="st0" d="M177.3,46.7v-14.7h10.7v-7.4h-10.7v-12.9h11.9v-7.4h-22.8v49.8h23.6v-7.4h-12.8Z"/>
  <path class="st0" d="M150.1,42.5c0,3.6-1.3,5.4-4.1,5.4s-4.1-1.8-4.1-5.4V4.3h-10.8v37.7c0,9.1,5.9,13.2,14.9,13.2s14.9-4.1,14.9-13.2V4.3h-10.8v38.2Z"/>
  <path class="st0" d="M126.9,20c0-8.9-4.8-15.7-18.5-15.7h-11.6v49.8h10.8v-17.3c1.3,9.6,8.5,17.6,19.1,17.6v-11.5c-5.8,0-10.2-2.9-12-7.7,8.8-2.1,12-8.4,12-15.3ZM107.7,29.3V11.7c5.8,0,8.3,2.7,8.3,8.3s-2.2,9.4-8.3,9.4Z"/>
  <path class="st0" d="M200,8l-.3-3.7h-.9l-.9,2.2-.9-2.2h-.9l-.3,3.7h.7l.2-2.5.7,1.9h.8l.7-1.9.2,2.5h.8Z"/>
  <path class="st0" d="M192.8,4.3v.7h1v3h.8v-3h1v-.7h-2.7Z"/>
  <path class="st0" d="M114.3,65.4c-.3-.5-.7-.9-1.2-1.1-.5-.3-1.1-.4-1.7-.4s-1.5.2-2.1.6c-.6.4-1.1,1-1.5,1.6-.4.7-.5,1.5-.5,2.3s.2,1.6.5,2.3c.4.7.9,1.2,1.5,1.6.6.4,1.3.6,2.1.6s1.2-.1,1.7-.4c.5-.3.9-.7,1.2-1.2v1.5h2.4v-11.5h-2.4v4h0ZM114.3,68.7c0,.4,0,.7-.3,1.1-.2.4-.4.7-.8.9-.3.2-.8.3-1.2.3s-.8-.1-1.2-.3c-.3-.2-.6-.5-.8-.9-.2-.4-.3-.8-.3-1.3s0-.9.3-1.3c.2-.4.5-.7.8-.9.3-.2.8-.3,1.2-.3s.9.1,1.2.3c.3.2.6.5.8.9.2.4.3.7.3,1.1v.5Z"/>
  <path class="st0" d="M124.1,64.4c-.6-.4-1.3-.5-2.1-.5s-1.6.2-2.3.6c-.7.4-1.2,1-1.6,1.7-.4.7-.6,1.5-.6,2.4s.2,1.7.6,2.4c.4.7,1,1.2,1.7,1.6.7.4,1.6.6,2.5.6s1.1,0,1.6-.2c.5-.1.9-.3,1.3-.5v-1.9c-.3.2-.7.4-1.2.5-.4.1-.9.2-1.4.2s-1.1-.1-1.6-.3c-.4-.2-.8-.5-1-.9-.1-.2-.2-.5-.3-.8h6.2c0-.4,0-.7,0-1,0-.8-.2-1.6-.5-2.2-.3-.6-.8-1.2-1.4-1.5h0ZM120.8,66c.3-.2.7-.3,1.2-.3s.7,0,1,.2c.3.2.5.4.7.7.2.3.2.6.2,1h-4.1c0-.3.1-.5.2-.7.2-.4.5-.7.8-.9Z"/>
  <path class="st0" d="M135.8,64.1l-2.2,5.5-2.1-5.5h-2.6l3.6,8.8h2l3.7-8.8h-2.4Z"/>
  <path class="st0" d="M144.3,64.4c-.6-.4-1.3-.5-2.1-.5s-1.6.2-2.3.6c-.7.4-1.2,1-1.6,1.7-.4.7-.6,1.5-.6,2.4s.2,1.7.6,2.4c.4.7,1,1.2,1.7,1.6.7.4,1.6.6,2.5.6s1.1,0,1.6-.2c.5-.1.9-.3,1.3-.5v-1.9c-.3.2-.7.4-1.2.5-.4.1-.9.2-1.4.2s-1.1-.1-1.6-.3c-.4-.2-.8-.5-1-.9-.1-.2-.2-.5-.3-.8h6.2c0-.4,0-.7,0-1,0-.8-.2-1.6-.5-2.2-.3-.6-.8-1.2-1.4-1.5h0ZM141,66c.3-.2.7-.3,1.2-.3s.7,0,1,.2c.3.2.5.4.7.7.2.3.2.6.2,1h-4.1c0-.3.1-.5.2-.7.2-.4.5-.7.8-.9Z"/>
  <path class="st0" d="M150.2,64.7c-.3.3-.5.7-.7,1.2v-1.7h-2.3v8.8h2.4v-4.3c0-.5,0-.9.2-1.2.2-.3.4-.6.7-.8.3-.2.7-.3,1.1-.3s.3,0,.4,0c.1,0,.2,0,.4.1v-2.3c-.2,0-.4-.1-.7-.1-.6,0-1.1.2-1.5.7h0Z"/>
  <path class="st0" d="M159.4,65.4c-.3-.5-.7-.9-1.2-1.1-.5-.3-1.1-.4-1.7-.4s-1.5.2-2.1.6c-.6.4-1.1,1-1.5,1.6-.4.7-.5,1.5-.5,2.3s.2,1.6.5,2.3c.4.7.9,1.2,1.5,1.6.6.4,1.3.6,2.1.6s1.2-.1,1.7-.4c.5-.3.9-.7,1.2-1.2v1.5h2.4v-11.5h-2.4v4h0ZM159.4,68.7c0,.4,0,.7-.3,1.1-.2.4-.4.7-.8.9-.3.2-.8.3-1.2.3s-.8-.1-1.2-.3c-.3-.2-.6-.5-.8-.9-.2-.4-.3-.8-.3-1.3s0-.9.3-1.3c.2-.4.5-.7.8-.9.3-.2.8-.3,1.2-.3s.9.1,1.2.3c.4.2.6.5.8.9.2.4.3.7.3,1.1v.5Z"/>
  <path class="st0" d="M168.3,64.4c-.6-.3-1.3-.4-2.1-.4s-.9,0-1.4.2c-.5.1-.8.2-1.2.4v1.8c.2-.2.5-.3.9-.4.3-.1.7-.2,1.1-.2.7,0,1.2.2,1.6.5.4.3.6.7.6,1.3v.6c-.2-.2-.4-.3-.7-.4-.4-.2-.9-.3-1.4-.3s-1.2.1-1.6.4c-.5.2-.9.6-1.1,1-.3.4-.4.9-.4,1.4s.1,1,.4,1.5c.3.4.6.8,1.1,1,.5.2,1,.4,1.5.4s.9,0,1.3-.3c.4-.2.7-.5,1-.8v.9h2.3v-5.4c0-.7-.2-1.3-.5-1.9-.3-.5-.8-.9-1.4-1.2h0ZM167.8,70.3c0,.2,0,.3-.2.5-.1.2-.3.3-.5.4-.2.1-.5.2-.8.2-.5,0-.8-.1-1.1-.3-.3-.2-.4-.5-.4-.9s.1-.7.4-.9.7-.3,1.1-.3.6,0,.8.2c.2.1.4.3.5.4.1.2.2.3.2.5v.3h0Z"/>
  <path class="st0" d="M177.9,65.4c-.3-.5-.7-.9-1.2-1.1-.5-.3-1.1-.4-1.7-.4s-1.5.2-2.1.6c-.6.4-1.1,1-1.5,1.6-.4.7-.5,1.5-.5,2.3s.2,1.6.5,2.3c.4.7.9,1.2,1.5,1.6.6.4,1.3.6,2.1.6s1.2-.1,1.7-.4c.5-.3.9-.7,1.2-1.2v1.5h2.4v-11.5h-2.4v4h0ZM177.9,68.7c0,.4,0,.7-.3,1.1-.2.4-.4.7-.8.9-.3.2-.8.3-1.2.3s-.8-.1-1.2-.3c-.3-.2-.6-.5-.8-.9-.2-.4-.3-.8-.3-1.3s0-.9.3-1.3c.2-.4.5-.7.8-.9.3-.2.8-.3,1.2-.3s.9.1,1.2.3c.3.2.6.5.8.9.2.4.3.7.3,1.1v.5Z"/>
  <path class="st0" d="M189.7,68.2c0-.8-.2-1.6-.5-2.2-.3-.6-.8-1.2-1.4-1.5-.6-.4-1.3-.5-2.1-.5s-1.6.2-2.3.6c-.7.4-1.2,1-1.6,1.7-.4.7-.6,1.5-.6,2.4s.2,1.7.6,2.4c.4.7,1,1.2,1.7,1.6.7.4,1.6.6,2.5.6s1.1,0,1.6-.2c.5-.1.9-.3,1.3-.5v-1.9c-.3.2-.7.4-1.2.5-.4.1-.9.2-1.4.2s-1.1-.1-1.6-.3c-.4-.2-.8-.5-1-.9-.1-.2-.2-.5-.3-.8h6.2c0-.4,0-.7,0-1h0ZM184.5,66c.3-.2.7-.3,1.2-.3s.7,0,1,.2c.3.2.5.4.7.7.2.3.2.6.2,1h-4.1c0-.3.1-.5.2-.7.2-.4.5-.7.8-.9Z"/>
  <path class="st0" d="M79.5,69.7l-3-7.9h-2.7l4.4,11.1h2.3l4.4-11.1h-2.5l-3.1,7.9Z"/>
  <path class="st0" d="M86.5,63.3c.3,0,.5-.1.8-.3.2-.2.3-.4.3-.7s-.1-.5-.3-.7c-.2-.2-.5-.3-.7-.3s-.6,0-.8.3c-.2.2-.3.4-.3.7s.1.5.3.7.4.3.7.3Z"/>
  <path class="st0" d="M87.7,64.1h-2.4v8.8h2.4v-8.8Z"/>
  <path class="st0" d="M94.9,64.1l-2.2,5.5-2.1-5.5h-2.6l3.6,8.8h2l3.7-8.8h-2.4Z"/>
  <path class="st0" d="M102.4,64.4c-.6-.3-1.3-.4-2.1-.4s-.9,0-1.4.2c-.5.1-.8.2-1.2.4v1.8c.2-.2.5-.3.9-.4.3-.1.7-.2,1.1-.2.7,0,1.2.2,1.6.5.4.3.6.7.6,1.3v.6c-.2-.2-.4-.3-.7-.4-.4-.2-.9-.3-1.4-.3s-1.2.1-1.6.4c-.5.2-.9.6-1.1,1-.3.4-.4.9-.4,1.4s.1,1,.4,1.5c.3.4.6.8,1.1,1,.5.2,1,.4,1.5.4s.9,0,1.3-.3c.4-.2.7-.5,1-.8v.9h2.3v-5.4c0-.7-.2-1.3-.5-1.9-.3-.5-.8-.9-1.4-1.2h0ZM101.9,70.3c0,.2,0,.3-.2.5-.1.2-.3.3-.5.4-.2.1-.5.2-.8.2-.5,0-.8-.1-1.1-.3-.3-.2-.4-.5-.4-.9s.1-.7.4-.9c.3-.2.7-.3,1.1-.3s.6,0,.8.2c.2.1.4.3.5.4.1.2.2.3.2.5v.3h0Z"/>
</svg>